# xmcd
#
# Track frame offsets:
#	150
#	12153
#	28152
#	42148
#	55757
#	74445
#	86866
#	101879
#	114151
#	126427
#
# Disc length: 1902 seconds
#
# Revision: 0
# Processed by: cddbd v1.5.2PL0 Copyright (c) Steve Scherf et al.
# Submitted via: EasyCDDAExtractor 16.0.1.1
#
DISCID=86076c0a
DTITLE=Holly Dunn - The Blue Rose Of Texas
DYEAR=1989
DGENRE=Country
TTITLE0=Are You Ever Gonna Love Me
TTITLE1=You're Still Keeping Me Up At Night
TTITLE2=Most Of All, Why
TTITLE3=Thunder And Lightnin'
TTITLE4=No One Takes The Train Anymore
TTITLE5=The Blue Rose Of Texas
TTITLE6=Sometime Today
TTITLE7=There Goes My Heart Again
TTITLE8=If I'd Never Loved You
TTITLE9=There's No Heart So Strong
EXTD=
EXTT0=
EXTT1=
EXTT2=
EXTT3=
EXTT4=
EXTT5=
EXTT6=
EXTT7=
EXTT8=
EXTT9=
PLAYORDER=
